<svg width="26" height="42" viewBox="0 0 26 42" fill="none" xmlns="http://www.w3.org/2000/svg">
<path fill-rule="evenodd" clip-rule="evenodd" d="M13 6.125C11.7919 6.125 10.8125 7.10438 10.8125 8.3125C10.8125 9.52062 11.7919 10.5 13 10.5C14.2081 10.5 15.1875 9.52062 15.1875 8.3125C15.1875 7.10438 14.2081 6.125 13 6.125ZM9.0625 8.3125C9.0625 6.13788 10.8254 4.375 13 4.375C15.1746 4.375 16.9375 6.13788 16.9375 8.3125C16.9375 10.4871 15.1746 12.25 13 12.25C10.8254 12.25 9.0625 10.4871 9.0625 8.3125Z" fill="#EBEBEB"/>
<path fill-rule="evenodd" clip-rule="evenodd" d="M21.4937 12.5063C21.8354 12.848 21.8354 13.402 21.4937 13.7437L5.74372 29.4937C5.40201 29.8354 4.84799 29.8354 4.50628 29.4937C4.16457 29.152 4.16457 28.598 4.50628 28.2563L20.2563 12.5063C20.598 12.1646 21.152 12.1646 21.4937 12.5063Z" fill="#EBEBEB"/>
<path fill-rule="evenodd" clip-rule="evenodd" d="M13 31.5C11.7919 31.5 10.8125 32.4794 10.8125 33.6875C10.8125 34.8956 11.7919 35.875 13 35.875C14.2081 35.875 15.1875 34.8956 15.1875 33.6875C15.1875 32.4794 14.2081 31.5 13 31.5ZM9.0625 33.6875C9.0625 31.5129 10.8254 29.75 13 29.75C15.1746 29.75 16.9375 31.5129 16.9375 33.6875C16.9375 35.8621 15.1746 37.625 13 37.625C10.8254 37.625 9.0625 35.8621 9.0625 33.6875Z" fill="#EBEBEB"/>
</svg>
